<svg xmlns="http://www.w3.org/2000/svg" width="176" height="40" fill="none"><g clip-path="url(#a)"><path fill="#00286A" d="M38.323 23.258c-.166.076-.166.128-.205.281-.166.615-.332 1.229-.576 1.882-2.444 7.142-9.062 12.365-17.062 12.365-9.92 0-17.882-7.924-17.882-17.716 0-9.792 7.962-17.83 17.882-17.83 8 0 13.76 5.222 16.115 10.445l-14.361 5.222c-.167.039-.333-.038-.333-.243L20.8 6.118c0-.128-.077-.204-.205-.204h-.333c-.128 0-.204.076-.204.204l-1.101 11.546c0 .205-.167.282-.333.243L8.32 15.053c-.128-.039-.205 0-.243.128l-.128.333c-.039.128 0 .204.077.243l8.486 4.288a.125.125 0 0 1 0 .243l-8.41 4.25c-.076.038-.128.128-.076.243l.128.333c.038.128.128.166.243.128l10.24-2.816c.166-.039.333.038.333.243l1.1 11.545c0 .128.077.205.205.205h.333c.128 0 .205-.077.205-.205l1.1-11.545c0-.205.167-.282.333-.243l10.33 2.854c.128.038.205 0 .243-.128l.128-.333c.039-.128 0-.205-.077-.243l-8.448-4.288a.125.125 0 0 1 0-.243l13.492-6.58c.166-.076.204-.243.166-.447C36.326 6.323 29.427 0 20.045 0 8.653 0 0 8.896 0 20.045 0 31.18 8.653 40 20.045 40c9.51 0 16.32-6.157 18.611-14.208.243-.858.525-2.202.525-2.778 0-.076-.077-.128-.167-.076l-.69.32Zm16.115 4.902c3.75 0 6.413-1.958 8.039-5.056.038-.077.038-.166-.039-.205l-.128-.077c-.076-.038-.128-.038-.204.039-1.55 1.472-3.341 2.688-5.67 2.688-2.292 0-3.674-.986-3.674-3.674 0-.448.038-.985.166-1.472.038-.128.077-.166.205-.166h9.881c.077 0 .167 0 .244-.167.448-.985.614-2.035.614-3.02 0-2.535-1.92-4.903-5.914-4.903-6.361 0-10.33 4.851-10.33 9.83 0 3.725 2.446 6.183 6.81 6.183Zm-1.254-9.152c1.024-3.994 2.445-5.875 4.493-5.875 1.267 0 1.958.78 1.958 1.997 0 2.572-1.753 4.083-6.323 4.083-.09 0-.18-.039-.128-.205Zm23.053 4.416c.077.038.128.077.038.205l-2.406 3.955c-.039.077 0 .166.077.166h4.902c.038 0 .128 0 .166-.128l3.712-14.899c.039-.166-.076-.166-.128-.166H78.08c-.077 0-.166 0-.205.128l-1.83 7.552c-.82 3.34-2.778 5.184-4.851 5.184-1.101 0-1.639-.487-1.639-1.434 0-.41.039-.73.167-1.305l2.496-9.959c.038-.166-.077-.166-.128-.166h-4.57c-.038 0-.128 0-.166.128l-2.407 9.677c-.166.614-.371 1.433-.371 2.29 0 1.998 1.306 3.508 3.955 3.508 2.855 0 4.98-1.549 6.695-3.75l.69-.896c.129-.167.167-.167.244-.128l.077.038Zm16.166-8c.858 0 1.472.448 1.472 1.344 0 1.062-.653 2.534-1.997 4.083-.076.077 0 .167.039.205l.077.077c.038.038.128.038.243-.039 3.635-2.163 5.76-4.25 5.76-6.246 0-1.549-1.14-2.688-3.06-2.688-2.406 0-3.955 1.434-5.964 4.045l-1.472 1.92c-.128.166-.167.166-.243.128l-.077-.039c-.077-.038-.128-.076-.039-.204l3.47-5.261c.038-.077 0-.167-.078-.167h-5.03c-.038 0-.128 0-.166.128l-3.712 14.9c-.039.166.038.166.128.166h4.57c.038 0 .127 0 .166-.128l1.638-6.656c.883-3.738 2.522-5.568 4.275-5.568Zm11.712 12.736c5.914 0 10.202-4.25 10.202-9.677 0-4.121-3.226-6.323-6.733-6.323-5.914 0-10.202 4.25-10.202 9.677 0 4.121 3.226 6.323 6.733 6.323Zm.205-.986c-1.267 0-2.163-.857-2.163-2.892 0-1.639.448-3.712 1.101-6.119.896-3.34 2.291-5.017 4.121-5.017 1.267 0 2.163.857 2.163 2.892 0 1.639-.448 3.712-1.1 6.119-.896 3.34-2.292 5.017-4.122 5.017Zm16.806.986c4.98 0 7.872-2.406 7.872-5.26 0-1.716-.896-2.817-3.596-4.046l-2.407-1.1c-1.549-.692-2.163-1.383-2.163-2.368 0-1.23 1.062-2.24 2.893-2.24 1.677 0 2.534.896 2.534 2.29 0 .73-.243 1.473-.409 1.882-.039.128.038.167.166.128l4.25-1.305c.128-.039.204-.077.166-.205-.614-2.202-2.893-3.75-6.771-3.75-4.608 0-7.143 2.24-7.143 4.979 0 1.83 1.101 3.059 3.392 4.121l2.407 1.101c1.997.935 2.483 1.549 2.483 2.483 0 1.306-1.139 2.33-3.43 2.33-1.792 0-2.944-.896-2.944-2.24 0-.82.371-1.549 1.062-2.24.038-.077 0-.166-.077-.166h-4.454c-.077 0-.128 0-.167.128a4.453 4.453 0 0 0-.166 1.267c.013 2.457 2.176 4.211 6.502 4.211Zm19.469-19.763c.039-.128-.038-.167-.128-.167h-.281c-.077 0-.167 0-.244.128-1.92 2.855-4.326 4.288-8.076 4.903l-.244.038c-.332.039-.332.077-.371.205l-.038.205c-.039.205.128.205.166.205h2.573l-2.445 8.41c-.281.985-.448 1.791-.448 2.482 0 2.164 1.677 3.341 3.84 3.341 3.507 0 5.837-3.469 6.413-4.288.038-.077.038-.166-.038-.205l-.128-.076c-.077-.039-.128-.039-.205.038-.653.653-1.997 1.638-3.226 1.638-.934 0-1.472-.576-1.472-1.433 0-.448.077-.896.243-1.434l2.484-8.486h4.288c.076 0 .166 0 .204-.128l.282-1.063c.038-.166-.077-.166-.128-.166h-4.326l1.305-4.147Zm16.039 19.353c.076 0 .128 0 .166-.128l1.92-7.667c.205-.857.448-1.92.448-3.059 0-2.816-2.125-4.736-6.566-4.736-4.647 0-8 1.92-8 5.018 0 .614.204 1.267.281 1.548.039.128.077.128.205.077l4.454-1.433c.128-.039.167-.039.128-.167a4.05 4.05 0 0 1-.204-1.305c0-1.588 1.1-2.778 2.944-2.778 1.638 0 2.444.934 2.444 2.291 0 .487-.128 1.14-.332 1.882-.128.486-.205.614-.576.73l-3.674 1.075c-5.914 1.715-7.834 2.816-7.834 5.593 0 1.882 1.472 3.469 4.493 3.469 2.893 0 4.647-1.267 6.451-3.546l.858-1.1c.128-.167.166-.167.243-.128l.077.038c.077.038.128.077.038.205l-2.406 3.955c-.038.077 0 .166.077.166h4.365Zm-2.816-7.513c-.653 2.893-2.484 6.08-4.775 6.08-1.024 0-1.677-.576-1.677-1.754 0-1.344.896-2.854 2.292-3.635.985-.576 2.777-.858 4.044-.858.077 0 .167 0 .116.167Zm16.204-4.813c.858 0 1.472.448 1.472 1.344 0 1.062-.652 2.534-1.996 4.083-.077.077 0 .167.038.205l.077.077c.038.038.128.038.243-.039 3.635-2.163 5.76-4.25 5.76-6.246 0-1.549-1.139-2.688-3.059-2.688-2.407 0-3.955 1.434-5.965 4.045l-1.472 1.92c-.128.166-.166.166-.243.128l-.077-.039c-.077-.038-.128-.076-.038-.204l3.468-5.261c.039-.077 0-.167-.076-.167h-5.018c-.038 0-.128 0-.166.128l-3.712 14.9c-.039.166.038.166.128.166h4.569c.039 0 .128 0 .167-.128l1.638-6.656c.883-3.738 2.509-5.568 4.262-5.568Z"/></g><defs><clipPath id="a"><path fill="#fff" d="M0 0h176v40H0z"/></clipPath></defs></svg>
